<svg width="51" height="62" viewBox="0 0 51 62" fill="none" xmlns="http://www.w3.org/2000/svg">
    <path fill-rule="evenodd" clip-rule="evenodd" d="M17.6095 43.2918L25.281 0.75L32.9524 43.2918L50.562 50.0915L25.281 61.25L0 50.0915L17.6095 43.2918ZM24.2346 58.9825L25.2807 61.2491L26.3268 58.9825L42.5415 50.0906L31.7317 43.9883L25.2807 17.6612L18.8297 43.9883L8.01986 50.0906L24.2346 58.9825ZM25.281 52.1845C27.4957 52.1845 29.2911 50.3891 29.2911 48.1744C29.2911 45.9597 27.4957 44.1643 25.281 44.1643C23.0663 44.1643 21.2709 45.9597 21.2709 48.1744C21.2709 50.3891 23.0663 52.1845 25.281 52.1845Z" fill="white"/>
</svg>